<svg xmlns="http://www.w3.org/2000/svg" width="118" height="233.2" viewBox="0 0 118 233.2"><path fill="#b4fff4" d="M107.6 172.7l-17.2-28.4c3.2-10.9 5.7-23.2 5.7-35.2 0-1.6-.1-3.2-.2-4.8-1.7-31.7-14-43-23.1-52.1-4.4-4.4-7.7-8.1-10-13.4a.4.4 0 0 1-.1-.3 10 10 0 0 0 3.8-1.2 5.6 5.6 0 0 0 2.6-4.9l-.5-1.1c-.8-.7-3-1.2-6.5-1.3a21.7 21.7 0 0 1 .1-6.2c.1-1.1.1-1.1 1.7-1.2h.3a2.3 2.3 0 0 0 1.9-1.2c.6-1.2-.2-2.6-.7-3.4l-.2-.3-.2-.7c-2.5-6-3.7-10.3-3.7-12.6S60.6.5 60 .2a1.4 1.4 0 0 0-1.5 0c-.4.2-1.4.8-1.4 4.2 0 1.5-.6 5-3.7 12.8l-.2.4v.3a4.7 4.7 0 0 0-.9 2.5 1.5 1.5 0 0 0 .2.9 2 2 0 0 0 1.9 1.2h.3c1.5.1 1.5.1 1.7 1.2s.2 2.6.2 3.8a9.7 9.7 0 0 1-.2 2.4c-3.5.1-5.7.6-6.5 1.3l-.4 1.1a5.5 5.5 0 0 0 2.5 4.9 10 10 0 0 0 3.9 1.2l-.2.3c-2.3 5.4-6 9.2-10.4 13.5-9.1 9.1-21.4 20.5-23.1 52-.1 1.6-.2 3.2-.2 4.8 0 12 2.5 24.3 5.7 35.2l-17.3 28.5L0 233.2h11.8l11-38.4 18.4-15.5.7.3 2.1.7c.3 1.9.6 3.9.9 5.1s.6 3.3 9.3 3.9v43.9h9.6v-43.9c9.1-.5 9.6-2.9 9.8-3.8s.6-3.3.9-5.2l2-.7.4-.2 18.3 15.4 11 38.4H118z"/></svg>